<?xml version="1.0" encoding="UTF-8"?><svg id="Layer_1" xmlns="http://www.w3.org/2000/svg" xmlns:xlink="http://www.w3.org/1999/xlink" viewBox="0 0 250 250"><defs><style>.cls-1{fill:url(#linear-gradient);}.cls-2{fill:#333;}.cls-3{opacity:.23;}</style><linearGradient id="linear-gradient" x1="118.74" y1="21.01" x2="118.74" y2="257.98" gradientUnits="userSpaceOnUse"><stop offset=".03" stop-color="#f2584f"/><stop offset=".09" stop-color="#f37053"/><stop offset=".19" stop-color="#f58f5a"/><stop offset=".29" stop-color="#f6a95f"/><stop offset=".41" stop-color="#f7bd63"/><stop offset=".55" stop-color="#f8cb65"/><stop offset=".71" stop-color="#f8d367"/><stop offset="1" stop-color="#f9d668"/></linearGradient></defs><ellipse class="cls-3" cx="128.52" cy="126.52" rx="118.6" ry="118.48"/><ellipse class="cls-1" cx="118.74" cy="118.37" rx="118.6" ry="118.48"/><path class="cls-2" d="M205.23,116.4c-7.54,4.22-15.09,7.59-22.73,10.2,1.29,2.07,2.02,4.51,2.02,7.12,0,7.51-6.09,13.6-13.6,13.6s-13.6-6.09-13.6-13.6c0-.39,.02-.78,.05-1.16-7.61,1.06-15.4,1.5-23.39,1.42-2.54-.03-3.03-1.43-3-3.73,.03-2.3,.8-3.62,3.24-3.6,9.19,.05,18.02-.6,26.65-2.09,5.08-.88,10.08-2.04,15.04-3.5,9.04-2.69,17.94-6.4,26.85-11.32,2.22-1.24,3.47-.15,4.19,1.92,.73,2.09,.57,3.45-1.71,4.74Z"/><path class="cls-2" d="M33.7,116.4c7.54,4.22,15.09,7.59,22.73,10.2-1.29,2.07-2.02,4.51-2.02,7.12,0,7.51,6.09,13.6,13.6,13.6,7.51,0,13.6-6.09,13.6-13.6,0-.39-.02-.78-.05-1.16,7.61,1.06,15.4,1.5,23.39,1.42,2.54-.03,3.03-1.43,3-3.73-.03-2.3-.8-3.62-3.24-3.6-9.19,.05-18.02-.6-26.65-2.09-5.08-.88-10.08-2.04-15.04-3.5-9.04-2.69-17.94-6.4-26.85-11.32-2.22-1.24-3.47-.15-4.19,1.92-.73,2.09-.57,3.45,1.71,4.74Z"/><path class="cls-2" d="M156.3,185.78c0,5.4-16.78,4.89-37.47,4.89s-37.47,.51-37.47-4.89,16.78-9.77,37.47-9.77,37.47,4.38,37.47,9.77Z"/></svg>