<?xml version="1.0" encoding="UTF-8"?><svg id="Layer_1" xmlns="http://www.w3.org/2000/svg" viewBox="0 0 900 221"><defs><style>.cls-1{fill:#f7c65e;}.cls-2{fill:#e54747;}.cls-3{fill:#ffe02c;}.cls-4{fill:#4d4d4d;}.cls-5{opacity:.3;}</style></defs><g class="cls-5"><rect class="cls-4" x="438.96" y="-260.23" width="68.47" height="743.21" transform="translate(653.75 -339.97) rotate(98.56)"/><polygon class="cls-4" points="100.63 89.92 30.97 53.16 8.85 41.49 33.62 36.81 110.82 22.22 100.63 89.92"/><path class="cls-4" d="M848.7,144.3h35.92c8.98,0,16.27,7.29,16.27,16.27v36.32h-68.47v-36.32c0-8.98,7.29-16.27,16.27-16.27Z" transform="translate(1164.34 -661.02) rotate(98.56)"/><path class="cls-4" d="M30.97,53.16l-22.12-11.67,24.77-4.68c.1,2.57-.04,5.2-.44,7.84-.45,2.96-1.2,5.81-2.21,8.51Z"/></g><g><rect class="cls-3" x="434.28" y="-266.34" width="68.47" height="743.21" transform="translate(642.33 -342.36) rotate(98.56)"/><polygon class="cls-1" points="95.95 83.81 26.29 47.05 4.17 35.38 28.94 30.7 106.14 16.11 95.95 83.81"/><path class="cls-2" d="M844.02,138.19h35.92c8.98,0,16.27,7.29,16.27,16.27v36.32h-68.47v-36.32c0-8.98,7.29-16.27,16.27-16.27Z" transform="translate(1152.93 -663.41) rotate(98.56)"/><path d="M26.29,47.05L4.17,35.38l24.77-4.68c.1,2.57-.04,5.2-.44,7.84-.45,2.96-1.2,5.81-2.21,8.51Z"/></g></svg>