<?xml version="1.0" encoding="UTF-8"?><svg id="Layer_1" xmlns="http://www.w3.org/2000/svg" viewBox="0 0 381.82 381.82"><defs><style>.cls-1{fill:#fff;}.cls-2{fill:#1a332c;}</style></defs><circle class="cls-2" cx="190.91" cy="190.91" r="190.91"/><path class="cls-1" d="M327.5,82.18c-21.65,19.63-16.25,45.73-17.4,70.42-2.16,46.5-26.81,72.14-73.62,77.3-3.43,.38-6.88,.81-10.32,.8-11.81-.05-17.45,4.13-16.48,17.33,1.29,17.63,.23,35.41,.39,53.13,.24,26.75,4.15,31.17,30.81,35.6,2.19,.36,4.56,.48,5.91,4.88h-108.03c.6-1.65,.83-3.37,1.32-3.45,33.25-5.34,34.42-10.74,34.86-44.94,.21-16-.43-32.02,.22-48,.39-9.51-3.37-13.32-12.58-14.1-9.7-.82-19.48-1.97-28.92-4.26-37.48-9.08-55.55-30.47-58.55-68.51-.4-5.12-.4-10.28-.53-15.42-.53-22.31,3.08-45.97-20.27-60.76h20.75c33.93,10.24,42.32,22.28,45.43,65.94,.81,11.38,.43,22.81,3.86,33.95,2.08,6.75,4.7,13.04,10.57,17.2,8.02,5.68,16.97,12.08,26.87,7.7,9.02-4,5.39-14.15,5.56-21.72,.42-18.27,.27-36.57,.03-54.85-.2-14.99-4.63-26.34-21.24-31-11.55-3.24-11.75-6.02-5.68-15.45,34.63-.09,69.23-.05,103.8-.01,11.67,7.34,3.74,13.16-2.93,14.64-21.46,4.78-24.2,19.53-23.69,37.53,.54,19.37-.38,38.77,.35,58.13,.52,13.69,6.09,17.05,19.03,12.15,20.35-7.71,25.01-25.23,26.91-44.01,1.26-12.42,1.13-24.86,3.49-37.33,4.34-22.86,14.53-39.12,39.32-42.87h20.75Z"/></svg>