<?xml version="1.0" encoding="UTF-8"?><svg id="Layer_1" xmlns="http://www.w3.org/2000/svg" viewBox="0 0 1920 1080"><defs><style>.cls-1{fill:#ededed;}.cls-2{fill:#fff;}</style></defs><rect class="cls-2" x="503.7" y="162.05" width="1230.98" height="708.56" transform="translate(52.75 -101.65) rotate(5.33)"/><rect class="cls-1" x="542.98" y="444.14" width="427" height="246" rx="14.34" ry="14.34" transform="translate(121.57 1267.71) rotate(-84.67)"/><rect class="cls-1" x="720.43" y="112.08" width="134" height="246" rx="14.34" ry="14.34" transform="translate(480.28 997.29) rotate(-84.67)"/><rect class="cls-1" x="870.34" y="754.43" width="62" height="19" rx="6.59" ry="6.59" transform="translate(57.04 1590.48) rotate(-84.67)"/><rect class="cls-1" x="747.4" y="533.89" width="349" height="19" rx="6.02" ry="6.02" transform="translate(295.29 1410.87) rotate(-84.67)"/><rect class="cls-1" x="896.45" y="477.09" width="427" height="246" rx="14.34" ry="14.34" transform="translate(409.43 1649.55) rotate(-84.67)"/><rect class="cls-1" x="1073.9" y="145.03" width="134" height="246" rx="14.34" ry="14.34" transform="translate(768.14 1379.13) rotate(-84.67)"/><rect class="cls-1" x="1223.81" y="787.38" width="62" height="19" rx="6.59" ry="6.59" transform="translate(344.9 1972.31) rotate(-84.67)"/><rect class="cls-1" x="1100.86" y="566.84" width="349" height="19" rx="6.02" ry="6.02" transform="translate(583.14 1792.7) rotate(-84.67)"/><rect class="cls-1" x="1243.1" y="518.44" width="427" height="246" rx="14.34" ry="14.34" transform="translate(682.74 2032.22) rotate(-84.67)"/><rect class="cls-1" x="1420.56" y="186.38" width="134" height="246" rx="14.34" ry="14.34" transform="translate(1041.44 1761.8) rotate(-84.67)"/><rect class="cls-1" x="1570.46" y="828.74" width="62" height="19" rx="6.59" ry="6.59" transform="translate(618.21 2354.99) rotate(-84.67)"/><rect class="cls-1" x="1447.52" y="608.19" width="349" height="19" rx="6.02" ry="6.02" transform="translate(856.45 2175.38) rotate(-84.67)"/></svg>