<?xml version="1.0" encoding="UTF-8"?><svg id="Layer_1" xmlns="http://www.w3.org/2000/svg" viewBox="0 0 1920 1080"><defs><style>.cls-1{fill:none;}.cls-2{fill:#f2df74;}.cls-3{fill:#eae2ab;}.cls-4{fill:#f4efd4;}.cls-5{fill:#aeaeae;}.cls-6{fill:#c7b14e;}.cls-7{fill:#94bcec;}.cls-8{fill:#949494;}.cls-9{fill:#4d4d4d;}.cls-10{fill:#333;opacity:.34;}</style></defs><path class="cls-7" d="M0,0V1080H1920V0H0ZM1698.84,926.58l-1225.67-114.25L538.94,106.83l1225.66,114.24-65.76,705.51Z"/><g><path class="cls-10" d="M1878.97,174.03c-6.52-5.86-14.94-9.75-24.35-10.63L476.64,34.95c-23.32-2.17-43.99,14.97-46.16,38.29l-41.89,449.38-4.64,49.82-24.96,267.74c-.93,10.02,1.7,19.55,6.86,27.34,6.84,10.33,18.13,17.59,31.43,18.82l1377.98,128.45c23.32,2.18,43.98-14.97,46.16-38.29l71.49-766.93c1.3-13.92-4.28-26.88-13.94-35.54ZM538.94,106.83l1225.66,114.24-65.76,705.51-1225.67-114.25L538.94,106.83Z"/><path class="cls-5" d="M1878.97,174.03c-6.84-10.32-18.12-17.56-31.41-18.8L469.58,26.78c-23.32-2.17-43.98,14.98-46.16,38.29l-42.61,457.11-4.64,49.82-24.24,260.01c-1.3,13.9,4.27,26.85,13.92,35.51,6.53,5.87,14.95,9.77,24.37,10.65l1377.98,128.46c23.32,2.16,43.99-14.98,46.16-38.3l71.49-766.94c.93-10.03-1.71-19.58-6.88-27.36ZM473.17,812.33L538.94,106.83l1225.66,114.24-65.76,705.51-1225.67-114.25Z"/><circle class="cls-8" cx="1792.71" cy="579.51" r="37.23"/></g><g><polygon class="cls-2" points="338.4 581.85 0 561.89 0 540.12 227.81 553.56 316.46 558.79 338.4 581.85"/><polygon class="cls-6" points="366.8 100.51 338.4 581.85 316.46 558.79 320.92 483.14 343.58 99.14 344.86 77.45 366.8 100.51"/><polygon class="cls-3" points="344.86 77.45 343.58 99.14 320.92 483.14 227.81 553.56 0 540.12 0 57.1 344.86 77.45"/><rect class="cls-1" x="358.46" y="522.37" width="50" height="50" transform="translate(31.38 -20.69) rotate(3.22)"/><polygon class="cls-4" points="320.92 483.14 316.46 558.79 227.81 553.56 320.92 483.14"/></g><g><path class="cls-9" d="M65.44,605.71l238.96,35.97c8.56,1.29,14.45,9.27,13.17,17.83l-19.92,132.36c-.62,4.11-2.85,7.81-6.19,10.28l-55.52,40.99c-3.34,2.47-7.53,3.51-11.64,2.89l-190.71-28.7c-8.56-1.29-14.45-9.27-13.17-17.83l27.18-180.62c1.29-8.56,9.27-14.45,17.83-13.17Z"/><rect class="cls-8" x="259.66" y="762.76" width="23" height="34" transform="translate(-540.28 931.85) rotate(-81.44)"/><rect class="cls-8" x="264.87" y="728.15" width="23" height="34" transform="translate(-501.62 907.54) rotate(-81.44)"/><rect class="cls-8" x="270.08" y="693.54" width="23" height="34" transform="translate(-462.96 883.23) rotate(-81.44)"/><rect class="cls-8" x="276.92" y="648.06" width="23" height="34" transform="translate(-412.15 851.28) rotate(-81.44)"/></g></svg>