<?xml version="1.0" encoding="UTF-8"?><svg id="Layer_1" xmlns="http://www.w3.org/2000/svg" viewBox="0 0 250 250"><defs><style>.cls-1{fill:#ed4d49;}.cls-2{fill:#fff;}.cls-3{opacity:.23;}</style></defs><ellipse class="cls-3" cx="130.39" cy="130.41" rx="119.23" ry="119.11"/><ellipse class="cls-1" cx="119.48" cy="119.52" rx="119.23" ry="119.11"/><path class="cls-2" d="M191.81,97.02c0,10.83-4.14,21.67-12.41,29.93l-55.71,55.66c-2.32,2.33-6.1,2.33-8.42,0l-55.71-55.66c-8.27-8.26-12.41-19.09-12.41-29.93s4.14-21.67,12.41-29.93c8.27-8.27,19.11-12.4,29.96-12.4,9.92,0,19.84,3.46,27.79,10.38,1.24,1.08,3.1,1.08,4.34,0,7.95-6.92,17.87-10.38,27.79-10.38,10.84,0,21.69,4.13,29.96,12.4,8.27,8.26,12.41,19.09,12.41,29.93Z"/></svg>