<?xml version="1.0" encoding="UTF-8"?><svg id="Layer_1" xmlns="http://www.w3.org/2000/svg" viewBox="0 0 250 250"><defs><style>.cls-1{fill:none;}.cls-2{fill:#fff;}.cls-3{fill:#0c78f9;}.cls-4{opacity:.23;}</style></defs><ellipse class="cls-4" cx="130.21" cy="124.41" rx="119.79" ry="114.45"/><ellipse class="cls-3" cx="119.79" cy="114.45" rx="119.79" ry="114.45"/><path class="cls-2" d="M184.14,101.39c4.73,0,8.56,4.21,8.56,9.4v1.62c0,5.19-3.84,9.4-8.56,9.4,4.73,0,8.56,4.21,8.56,9.4v1.62c0,5.19-3.84,9.4-8.56,9.4,4.73,0,8.56,4.21,8.56,9.4v1.62c0,5.19-3.84,9.4-8.56,9.4H92.73c-.49,0-.97-.05-1.44-.13-.27-.05-.55-.09-.82-.09h-2.26c-2.23,0-4.04-1.85-4.04-4.14v-59.95c0-3.15,2.03-5.97,5-6.77,9.88-2.68,16.15-10.83,20.01-18.69,3.81-7.74,7.71-16.25,7.71-24.8h0c0-6.3,2.57-11.41,8.31-11.41,2.87,0,5.47,1.27,7.35,3.34,1.88,2.07,3.05,4.92,3.05,8.07l-.09,.64c-.09,3.45-.5,6.88-1.15,10.27-3.59,18.68,2.12,21.53,7.82,22.01h41.95c4.73,0,8.56,4.21,8.56,9.4v1.62c0,5.19-3.84,9.4-8.56,9.4Z"/><ellipse class="cls-1" cx="179.12" cy="64.17" rx="4.69" ry="4.8"/><rect class="cls-2" x="32.29" y="98.07" width="43" height="69.13" rx="7.38" ry="7.38"/></svg>