<?xml version="1.0" encoding="UTF-8"?><svg id="Layer_1" xmlns="http://www.w3.org/2000/svg" viewBox="0 0 90 80"><defs><style>.cls-1{fill:#ed4d49;}</style></defs><path class="cls-1" d="M89.16,26.26c0,6.62-2.53,13.23-7.58,18.27l-34.02,33.98c-1.42,1.42-3.72,1.42-5.14,0L8.41,44.54C3.36,39.49,.84,32.88,.84,26.26S3.36,13.03,8.41,7.99C13.46,2.94,20.08,.41,26.7,.41c6.06,0,12.11,2.11,16.97,6.34,.76,.66,1.89,.66,2.65,0C51.18,2.53,57.24,.41,63.3,.41c6.62,0,13.24,2.52,18.29,7.57,5.05,5.04,7.58,11.66,7.58,18.27Z"/></svg>