<?xml version="1.0" encoding="UTF-8"?><svg id="Layer_1" xmlns="http://www.w3.org/2000/svg" viewBox="0 0 1447 715"><defs><style>.cls-1{fill:#ededed;}.cls-2{fill:#fff;}.cls-3{fill:#e1e1e1;}</style></defs><path class="cls-3" d="M1447,67.03V647.97c0,37.02-28.67,67.03-64.04,67.03H64.04c-35.37,0-64.04-30.01-64.04-67.03V67.03C0,30.01,28.67,0,64.04,0H1382.96c35.37,0,64.04,30.01,64.04,67.03Z"/><rect class="cls-2" x="51" y="40" width="1345" height="635" rx="59.53" ry="59.53"/><g><path class="cls-3" d="M378.64,224H51v64H314.64c47.5,0,86.36,38.86,86.36,86.36v300.64h64V310.36c0-47.5-38.86-86.36-86.36-86.36Z"/><path class="cls-3" d="M274.64,328H51v133.55c22.94-32.11,60.53-53.05,103-53.05,69.86,0,126.5,56.64,126.5,126.5s-56.64,126.5-126.5,126.5c-42.47,0-80.06-20.94-103-53.05v7.02c0,32.88,26.65,59.53,59.53,59.53h248.27c1.44-6.23,2.2-12.71,2.2-19.36v-241.28c0-47.5-38.86-86.36-86.36-86.36Zm17.06,105c-17.4,0-31.5-14.1-31.5-31.5s14.1-31.5,31.5-31.5,31.5,14.1,31.5,31.5-14.1,31.5-31.5,31.5Z"/><circle class="cls-3" cx="154" cy="535" r="87"/></g><path class="cls-1" d="M1396,214.07v401.4c0,32.88-26.65,59.53-59.53,59.53h-166.1l-151.21-151.2c-35.43-35.44-53.16-81.9-53.16-128.37s17.73-92.93,53.16-128.36c35.43-35.46,81.9-53.19,128.37-53.19,42.5,0,85.01,14.84,119.09,44.51,5.3,4.62,13.29,4.62,18.6,0,31.86-27.74,71.08-42.51,110.78-44.32Z"/></svg>