<svg width="43" height="43" viewBox="0 0 43 43" fill="none" xmlns="http://www.w3.org/2000/svg">
<path d="M12.4861 12.4861C12.6109 12.361 12.7592 12.2617 12.9224 12.194C13.0857 12.1262 13.2607 12.0914 13.4375 12.0914C13.6142 12.0914 13.7892 12.1262 13.9525 12.194C14.1157 12.2617 14.264 12.361 14.3888 12.4861L21.5 19.6L28.6111 12.4861C28.736 12.3612 28.8843 12.2621 29.0476 12.1945C29.2108 12.1269 29.3858 12.0921 29.5625 12.0921C29.7391 12.0921 29.9141 12.1269 30.0773 12.1945C30.2406 12.2621 30.3889 12.3612 30.5138 12.4861C30.6388 12.6111 30.7379 12.7594 30.8055 12.9226C30.8731 13.0859 30.9079 13.2608 30.9079 13.4375C30.9079 13.6142 30.8731 13.7892 30.8055 13.9524C30.7379 14.1156 30.6388 14.264 30.5138 14.3889L23.4 21.5L30.5138 28.6111C30.6388 28.7361 30.7379 28.8844 30.8055 29.0476C30.8731 29.2109 30.9079 29.3858 30.9079 29.5625C30.9079 29.7392 30.8731 29.9142 30.8055 30.0774C30.7379 30.2406 30.6388 30.389 30.5138 30.5139C30.3889 30.6388 30.2406 30.7379 30.0773 30.8056C29.9141 30.8732 29.7391 30.908 29.5625 30.908C29.3858 30.908 29.2108 30.8732 29.0476 30.8056C28.8843 30.7379 28.736 30.6388 28.6111 30.5139L21.5 23.4001L14.3888 30.5139C14.2639 30.6388 14.1156 30.7379 13.9523 30.8056C13.7891 30.8732 13.6141 30.908 13.4375 30.908C13.2608 30.908 13.0858 30.8732 12.9226 30.8056C12.7593 30.7379 12.611 30.6388 12.4861 30.5139C12.3611 30.389 12.262 30.2406 12.1944 30.0774C12.1268 29.9142 12.092 29.7392 12.092 29.5625C12.092 29.3858 12.1268 29.2109 12.1944 29.0476C12.262 28.8844 12.3611 28.7361 12.4861 28.6111L19.5999 21.5L12.4861 14.3889C12.3609 14.2641 12.2617 14.1158 12.1939 13.9525C12.1262 13.7893 12.0913 13.6143 12.0913 13.4375C12.0913 13.2608 12.1262 13.0858 12.1939 12.9225C12.2617 12.7593 12.3609 12.611 12.4861 12.4861Z" fill="#323330"/>
</svg>
